<?xml version="1.0" encoding="UTF-8"?>
<svg version="1.1" xmlns="http://www.w3.org/2000/svg" viewBox="0 0 250 250" fill="#FFFFFF">
    <path d="M0 0 C19.62000772 16.60110434 31.24638799 37.3000137 38.24609375 61.7734375 C38.58769531 62.94777344 38.92929688 64.12210937 39.28125 65.33203125 C46.31234054 94.14315107 39.66559452 126.29778662 24.47265625 151.43359375 C6.97779341 178.27861221 -17.20710924 195.03667092 -47.75390625 203.7734375 C-48.92824219 204.11503906 -50.10257813 204.45664063 -51.3125 204.80859375 C-80.12361982 211.83968429 -112.27825537 205.19293827 -137.4140625 190 C-164.25908096 172.50513716 -181.01713967 148.32023451 -189.75390625 117.7734375 C-190.09550781 116.59910156 -190.43710938 115.42476562 -190.7890625 114.21484375 C-197.82015304 85.40372393 -191.17340702 53.24908838 -175.98046875 28.11328125 C-158.48560591 1.26826279 -134.30070326 -15.48979592 -103.75390625 -24.2265625 C-102.57957031 -24.56816406 -101.40523438 -24.90976562 -100.1953125 -25.26171875 C-65.18368802 -33.80598579 -27.29844106 -22.52372079 0 0 Z M-80.9921875 19.41796875 C-86.01979947 26.14003087 -86.8070771 31.25197516 -87.75390625 39.7734375 C-94.02390625 39.7734375 -100.29390625 39.7734375 -106.75390625 39.7734375 C-106.75390625 82.6734375 -106.75390625 125.5734375 -106.75390625 169.7734375 C-118.08182762 166.37506109 -124.92335661 163.21994232 -131.75390625 153.7734375 C-134.6615563 148.35919257 -135.72744331 142.77522671 -136.75390625 136.7734375 C-138.73390625 136.7734375 -140.71390625 136.7734375 -142.75390625 136.7734375 C-143.54074719 145.42868787 -140.6220092 153.7409669 -135.44140625 160.6484375 C-127.68928437 169.72808977 -118.46479719 175.82413566 -106.31640625 177.01171875 C-96.33050091 177.30094467 -86.37307152 175.07706388 -78.59375 168.53125 C-69.10743295 159.46788976 -65.21930672 152.96204169 -63.75390625 139.7734375 C-57.48390625 139.7734375 -51.21390625 139.7734375 -44.75390625 139.7734375 C-44.75390625 120.6334375 -44.75390625 101.4934375 -44.75390625 81.7734375 C-42.11390625 81.4434375 -39.47390625 81.1134375 -36.75390625 80.7734375 C-24.8042399 76.15718498 -17.20290416 69.6851648 -11.48828125 58.23828125 C-7.13381636 47.82743032 -7.45760291 37.02066041 -11.42578125 26.52734375 C-16.60279642 15.79265053 -25.54199292 8.10943903 -36.65234375 4.0859375 C-54.15209097 -1.05684536 -69.68475159 6.15561269 -80.9921875 19.41796875 Z " transform="translate(200.75390625,35.2265625)"/>
    <path d="M0 0 C0 40.92 0 81.84 0 124 C-3.96 124 -7.92 124 -12 124 C-12 93.97 -12 63.94 -12 33 C-13.98 33 -15.96 33 -18 33 C-17.99111755 34.22838089 -17.98223511 35.45676178 -17.9730835 36.72236633 C-17.89180233 48.32992639 -17.83194092 59.93742827 -17.79275131 71.54520893 C-17.77192583 77.51211269 -17.74370018 83.47878567 -17.69824219 89.44555664 C-17.65460491 95.20977721 -17.63082503 100.97377657 -17.62049103 106.73814964 C-17.61313172 108.93126085 -17.59876105 111.12436071 -17.57707977 113.31737709 C-17.33109071 139.24269918 -17.33109071 139.24269918 -26.23046875 150.21484375 C-30.86287727 154.88815654 -36.54895868 158.53385425 -43 160 C-44.65 160 -46.3 160 -48 160 C-48 119.08 -48 78.16 -48 36 C-44.04 36 -40.08 36 -36 36 C-36 66.03 -36 96.06 -36 127 C-34.02 127 -32.04 127 -30 127 C-30.00888245 125.77161911 -30.01776489 124.54323822 -30.0269165 123.27763367 C-30.10819767 111.67007361 -30.16805908 100.06257173 -30.20724869 88.45479107 C-30.22807417 82.48788731 -30.25629982 76.52121433 -30.30175781 70.55444336 C-30.34539509 64.79022279 -30.36917497 59.02622343 -30.37950897 53.26185036 C-30.38686828 51.06873915 -30.40123895 48.87563929 -30.42292023 46.68262291 C-30.66890929 20.75730082 -30.66890929 20.75730082 -21.76953125 9.78515625 C-15.62928984 3.59069637 -8.7561845 0 0 0 Z " transform="translate(149,45)"/>
    <path d="M0 0 C9.61771421 1.20221428 15.78580469 3.9115994 22.4296875 10.97265625 C28.67042906 19.02973304 31.01486202 27.93714281 30 38 C27.4682086 48.41651318 22.50161319 56.07389061 13.3828125 61.74609375 C9.29289517 63.89832894 4.69078461 66 0 66 C0 44.22 0 22.44 0 0 Z " transform="translate(156,45)"/>
</svg>
